TITLE ""
FILE "LR_black_phrase_E_C02.mp3" MP3
  TRACK 01 AUDIO
    TITLE "LR_black_phrase_E_C02_001"
    INDEX 01 00:00:00
  TRACK 02 AUDIO
    TITLE "LR_black_phrase_E_C02_002"
    INDEX 01 00:00:14
  TRACK 03 AUDIO
    TITLE "LR_black_phrase_E_C02_003"
    INDEX 01 00:01:31
  TRACK 04 AUDIO
    TITLE "LR_black_phrase_E_C02_004"
    INDEX 01 00:01:63
  TRACK 05 AUDIO
    TITLE "LR_black_phrase_E_C02_005"
    INDEX 01 00:03:63
  TRACK 06 AUDIO
    TITLE "LR_black_phrase_E_C02_006"
    INDEX 01 00:04:41
  TRACK 07 AUDIO
    TITLE "LR_black_phrase_E_C02_007"
    INDEX 01 00:06:42
  TRACK 08 AUDIO
    TITLE "LR_black_phrase_E_C02_008"
    INDEX 01 00:07:48
  TRACK 09 AUDIO
    TITLE "LR_black_phrase_E_C02_009"
    INDEX 01 00:08:73
  TRACK 10 AUDIO
    TITLE "LR_black_phrase_E_C02_010"
    INDEX 01 00:09:25
  TRACK 11 AUDIO
    TITLE "LR_black_phrase_E_C02_011"
    INDEX 01 00:11:61
  TRACK 12 AUDIO
    TITLE "LR_black_phrase_E_C02_012"
    INDEX 01 00:12:39
  TRACK 13 AUDIO
    TITLE "LR_black_phrase_E_C02_013"
    INDEX 01 00:15:02
  TRACK 14 AUDIO
    TITLE "LR_black_phrase_E_C02_014"
    INDEX 01 00:16:05
  TRACK 15 AUDIO
    TITLE "LR_black_phrase_E_C02_015"
    INDEX 01 00:17:22
  TRACK 16 AUDIO
    TITLE "LR_black_phrase_E_C02_016"
    INDEX 01 00:17:46
  TRACK 17 AUDIO
    TITLE "LR_black_phrase_E_C02_017"
    INDEX 01 00:19:43
  TRACK 18 AUDIO
    TITLE "LR_black_phrase_E_C02_018"
    INDEX 01 00:20:17
  TRACK 19 AUDIO
    TITLE "LR_black_phrase_E_C02_019"
    INDEX 01 00:22:14
  TRACK 20 AUDIO
    TITLE "LR_black_phrase_E_C02_020"
    INDEX 01 00:23:23
  TRACK 21 AUDIO
    TITLE "LR_black_phrase_E_C02_021"
    INDEX 01 00:24:46
  TRACK 22 AUDIO
    TITLE "LR_black_phrase_E_C02_022"
    INDEX 01 00:24:73
  TRACK 23 AUDIO
    TITLE "LR_black_phrase_E_C02_023"
    INDEX 01 00:26:63
  TRACK 24 AUDIO
    TITLE "LR_black_phrase_E_C02_024"
    INDEX 01 00:27:40
  TRACK 25 AUDIO
    TITLE "LR_black_phrase_E_C02_025"
    INDEX 01 00:29:30
  TRACK 26 AUDIO
    TITLE "LR_black_phrase_E_C02_026"
    INDEX 01 00:30:35
  TRACK 27 AUDIO
    TITLE "LR_black_phrase_E_C02_027"
    INDEX 01 00:31:48
  TRACK 28 AUDIO
    TITLE "LR_black_phrase_E_C02_028"
    INDEX 01 00:32:02
  TRACK 29 AUDIO
    TITLE "LR_black_phrase_E_C02_029"
    INDEX 01 00:33:72
  TRACK 30 AUDIO
    TITLE "LR_black_phrase_E_C02_030"
    INDEX 01 00:34:52
  TRACK 31 AUDIO
    TITLE "LR_black_phrase_E_C02_031"
    INDEX 01 00:36:47
  TRACK 32 AUDIO
    TITLE "LR_black_phrase_E_C02_032"
    INDEX 01 00:37:53
  TRACK 33 AUDIO
    TITLE "LR_black_phrase_E_C02_033"
    INDEX 01 00:38:64
  TRACK 34 AUDIO
    TITLE "LR_black_phrase_E_C02_034"
    INDEX 01 00:39:20
  TRACK 35 AUDIO
    TITLE "LR_black_phrase_E_C02_035"
    INDEX 01 00:41:17
  TRACK 36 AUDIO
    TITLE "LR_black_phrase_E_C02_036"
    INDEX 01 00:41:70
  TRACK 37 AUDIO
    TITLE "LR_black_phrase_E_C02_037"
    INDEX 01 00:43:67
  TRACK 38 AUDIO
    TITLE "LR_black_phrase_E_C02_038"
    INDEX 01 00:44:72
  TRACK 39 AUDIO
    TITLE "LR_black_phrase_E_C02_039"
    INDEX 01 00:46:01
  TRACK 40 AUDIO
    TITLE "LR_black_phrase_E_C02_040"
    INDEX 01 00:46:40
  TRACK 41 AUDIO
    TITLE "LR_black_phrase_E_C02_041"
    INDEX 01 00:48:52
  TRACK 42 AUDIO
    TITLE "LR_black_phrase_E_C02_042"
    INDEX 01 00:49:32
  TRACK 43 AUDIO
    TITLE "LR_black_phrase_E_C02_043"
    INDEX 01 00:51:45
  TRACK 44 AUDIO
    TITLE "LR_black_phrase_E_C02_044"
    INDEX 01 00:52:50
  TRACK 45 AUDIO
    TITLE "LR_black_phrase_E_C02_045"
    INDEX 01 00:53:54
  TRACK 46 AUDIO
    TITLE "LR_black_phrase_E_C02_046"
    INDEX 01 00:54:10
  TRACK 47 AUDIO
    TITLE "LR_black_phrase_E_C02_047"
    INDEX 01 00:57:22
  TRACK 48 AUDIO
    TITLE "LR_black_phrase_E_C02_048"
    INDEX 01 00:58:02
  TRACK 49 AUDIO
    TITLE "LR_black_phrase_E_C02_049"
    INDEX 01 01:01:14
  TRACK 50 AUDIO
    TITLE "LR_black_phrase_E_C02_050"
    INDEX 01 01:02:19
  TRACK 51 AUDIO
    TITLE "LR_black_phrase_E_C02_051"
    INDEX 01 01:03:23
  TRACK 52 AUDIO
    TITLE "LR_black_phrase_E_C02_052"
    INDEX 01 01:03:52
  TRACK 53 AUDIO
    TITLE "LR_black_phrase_E_C02_053"
    INDEX 01 01:06:11
  TRACK 54 AUDIO
    TITLE "LR_black_phrase_E_C02_054"
    INDEX 01 01:06:64
  TRACK 55 AUDIO
    TITLE "LR_black_phrase_E_C02_055"
    INDEX 01 01:09:25
  TRACK 56 AUDIO
    TITLE "LR_black_phrase_E_C02_056"
    INDEX 01 01:10:27
  TRACK 57 AUDIO
    TITLE "LR_black_phrase_E_C02_057"
    INDEX 01 01:11:59
  TRACK 58 AUDIO
    TITLE "LR_black_phrase_E_C02_058"
    INDEX 01 01:12:16
  TRACK 59 AUDIO
    TITLE "LR_black_phrase_E_C02_059"
    INDEX 01 01:14:62
  TRACK 60 AUDIO
    TITLE "LR_black_phrase_E_C02_060"
    INDEX 01 01:15:41
  TRACK 61 AUDIO
    TITLE "LR_black_phrase_E_C02_061"
    INDEX 01 01:18:14
  TRACK 62 AUDIO
    TITLE "LR_black_phrase_E_C02_062"
    INDEX 01 01:19:20
  TRACK 63 AUDIO
    TITLE "LR_black_phrase_E_C02_063"
    INDEX 01 01:20:49
  TRACK 64 AUDIO
    TITLE "LR_black_phrase_E_C02_064"
    INDEX 01 01:20:74
  TRACK 65 AUDIO
    TITLE "LR_black_phrase_E_C02_065"
    INDEX 01 01:23:33
  TRACK 66 AUDIO
    TITLE "LR_black_phrase_E_C02_066"
    INDEX 01 01:24:13
  TRACK 67 AUDIO
    TITLE "LR_black_phrase_E_C02_067"
    INDEX 01 01:26:47
  TRACK 68 AUDIO
    TITLE "LR_black_phrase_E_C02_068"
    INDEX 01 01:27:51
  TRACK 69 AUDIO
    TITLE "LR_black_phrase_E_C02_069"
    INDEX 01 01:28:73
  TRACK 70 AUDIO
    TITLE "LR_black_phrase_E_C02_070"
    INDEX 01 01:29:30
  TRACK 71 AUDIO
    TITLE "LR_black_phrase_E_C02_071"
    INDEX 01 01:31:54
  TRACK 72 AUDIO
    TITLE "LR_black_phrase_E_C02_072"
    INDEX 01 01:32:38
  TRACK 73 AUDIO
    TITLE "LR_black_phrase_E_C02_073"
    INDEX 01 01:34:62
  TRACK 74 AUDIO
    TITLE "LR_black_phrase_E_C02_074"
    INDEX 01 01:35:70
  TRACK 75 AUDIO
    TITLE "LR_black_phrase_E_C02_075"
    INDEX 01 01:37:08
  TRACK 76 AUDIO
    TITLE "LR_black_phrase_E_C02_076"
    INDEX 01 01:37:37
  TRACK 77 AUDIO
    TITLE "LR_black_phrase_E_C02_077"
    INDEX 01 01:39:32
  TRACK 78 AUDIO
    TITLE "LR_black_phrase_E_C02_078"
    INDEX 01 01:40:12
  TRACK 79 AUDIO
    TITLE "LR_black_phrase_E_C02_079"
    INDEX 01 01:42:07
  TRACK 80 AUDIO
    TITLE "LR_black_phrase_E_C02_080"
    INDEX 01 01:43:12
  TRACK 81 AUDIO
    TITLE "LR_black_phrase_E_C02_081"
    INDEX 01 01:44:53
  TRACK 82 AUDIO
    TITLE "LR_black_phrase_E_C02_082"
    INDEX 01 01:45:07
  TRACK 83 AUDIO
    TITLE "LR_black_phrase_E_C02_083"
    INDEX 01 01:47:32
  TRACK 84 AUDIO
    TITLE "LR_black_phrase_E_C02_084"
    INDEX 01 01:48:10
  TRACK 85 AUDIO
    TITLE "LR_black_phrase_E_C02_085"
    INDEX 01 01:50:34
  TRACK 86 AUDIO
    TITLE "LR_black_phrase_E_C02_086"
    INDEX 01 01:51:37
  TRACK 87 AUDIO
    TITLE "LR_black_phrase_E_C02_087"
    INDEX 01 01:53:15
  TRACK 88 AUDIO
    TITLE "LR_black_phrase_E_C02_088"
    INDEX 01 01:53:44
  TRACK 89 AUDIO
    TITLE "LR_black_phrase_E_C02_089"
    INDEX 01 01:55:59
  TRACK 90 AUDIO
    TITLE "LR_black_phrase_E_C02_090"
    INDEX 01 01:56:37
  TRACK 91 AUDIO
    TITLE "LR_black_phrase_E_C02_091"
    INDEX 01 01:58:51
  TRACK 92 AUDIO
    TITLE "LR_black_phrase_E_C02_092"
    INDEX 01 01:59:54
  TRACK 93 AUDIO
    TITLE "LR_black_phrase_E_C02_093"
    INDEX 01 02:00:68
  TRACK 94 AUDIO
    TITLE "LR_black_phrase_E_C02_094"
    INDEX 01 02:01:12
  TRACK 95 AUDIO
    TITLE "LR_black_phrase_E_C02_095"
    INDEX 01 02:03:03
  TRACK 96 AUDIO
    TITLE "LR_black_phrase_E_C02_096"
    INDEX 01 02:03:52
  TRACK 97 AUDIO
    TITLE "LR_black_phrase_E_C02_097"
    INDEX 01 02:05:43
  TRACK 98 AUDIO
    TITLE "LR_black_phrase_E_C02_098"
    INDEX 01 02:06:49
  TRACK 99 AUDIO
    TITLE "LR_black_phrase_E_C02_099"
    INDEX 01 02:07:64
  TRACK 100 AUDIO
    TITLE "LR_black_phrase_E_C02_100"
    INDEX 01 02:08:18
  TRACK 101 AUDIO
    TITLE "LR_black_phrase_E_C02_101"
    INDEX 01 02:10:44
  TRACK 102 AUDIO
    TITLE "LR_black_phrase_E_C02_102"
    INDEX 01 02:11:24
  TRACK 103 AUDIO
    TITLE "LR_black_phrase_E_C02_103"
    INDEX 01 02:13:53
  TRACK 104 AUDIO
    TITLE "LR_black_phrase_E_C02_104"
    INDEX 01 02:14:58
  TRACK 105 AUDIO
    TITLE "LR_black_phrase_E_C02_105"
    INDEX 01 02:15:67
  TRACK 106 AUDIO
    TITLE "LR_black_phrase_E_C02_106"
    INDEX 01 02:16:22
  TRACK 107 AUDIO
    TITLE "LR_black_phrase_E_C02_107"
    INDEX 01 02:18:54
  TRACK 108 AUDIO
    TITLE "LR_black_phrase_E_C02_108"
    INDEX 01 02:19:32
  TRACK 109 AUDIO
    TITLE "LR_black_phrase_E_C02_109"
    INDEX 01 02:21:64
  TRACK 110 AUDIO
    TITLE "LR_black_phrase_E_C02_110"
    INDEX 01 02:22:67
  TRACK 111 AUDIO
    TITLE "LR_black_phrase_E_C02_111"
    INDEX 01 02:24:09
  TRACK 112 AUDIO
    TITLE "LR_black_phrase_E_C02_112"
    INDEX 01 02:24:31
  TRACK 113 AUDIO
    TITLE "LR_black_phrase_E_C02_113"
    INDEX 01 02:26:51
  TRACK 114 AUDIO
    TITLE "LR_black_phrase_E_C02_114"
    INDEX 01 02:27:23
  TRACK 115 AUDIO
    TITLE "LR_black_phrase_E_C02_115"
    INDEX 01 02:29:44
  TRACK 116 AUDIO
    TITLE "LR_black_phrase_E_C02_116"
    INDEX 01 02:30:45
  TRACK 117 AUDIO
    TITLE "LR_black_phrase_E_C02_117"
    INDEX 01 02:32:03
  TRACK 118 AUDIO
    TITLE "LR_black_phrase_E_C02_118"
    INDEX 01 02:32:32
  TRACK 119 AUDIO
    TITLE "LR_black_phrase_E_C02_119"
    INDEX 01 02:34:55
  TRACK 120 AUDIO
    TITLE "LR_black_phrase_E_C02_120"
    INDEX 01 02:35:33
  TRACK 121 AUDIO
    TITLE "LR_black_phrase_E_C02_121"
    INDEX 01 02:37:53
